<svg width="300" height="70" viewBox="0 0 300 70" fill="none" xmlns="http://www.w3.org/2000/svg">
<rect width="300" height="70" fill="#DB207D"/>
<path d="M0 70V0H70V70H0Z" fill="#DB207D"/>
<path fill-rule="evenodd" clip-rule="evenodd" d="M65 5H5V65H65V5ZM55 15H15V55H55V15Z" fill="white"/>
<path fill-rule="evenodd" clip-rule="evenodd" d="M34 17H17V53H34V17Z" fill="white"/>
<path fill-rule="evenodd" clip-rule="evenodd" d="M34 17H17V53H34V17Z" fill="white"/>
<path d="M36 36H53V53H36V36Z" fill="white"/>
<path d="M36 17H53V34H36V17Z" fill="white"/>
<path d="M81.569 50V19.9H95.243C98.511 19.9 101.392 20.5307 103.886 21.792C106.38 23.0247 108.329 24.759 109.734 26.995C111.139 29.231 111.841 31.8827 111.841 34.95C111.841 37.9887 111.139 40.6403 109.734 42.905C108.329 45.141 106.38 46.8897 103.886 48.151C101.392 49.3837 98.511 50 95.243 50H81.569ZM88.535 44.281H94.899C96.9057 44.281 98.64 43.9083 100.102 43.163C101.593 42.389 102.739 41.2997 103.542 39.895C104.373 38.4903 104.789 36.842 104.789 34.95C104.789 33.0293 104.373 31.381 103.542 30.005C102.739 28.6003 101.593 27.5253 100.102 26.78C98.64 26.006 96.9057 25.619 94.899 25.619H88.535V44.281ZM116.621 50V26.866H123.329V50H116.621ZM119.975 23.641C118.743 23.641 117.739 23.2827 116.965 22.566C116.191 21.8493 115.804 20.9607 115.804 19.9C115.804 18.8393 116.191 17.9507 116.965 17.234C117.739 16.5173 118.743 16.159 119.975 16.159C121.208 16.159 122.211 16.503 122.985 17.191C123.759 17.8503 124.146 18.7103 124.146 19.771C124.146 20.889 123.759 21.8207 122.985 22.566C122.24 23.2827 121.237 23.641 119.975 23.641ZM159.182 26.522C161.017 26.522 162.636 26.8947 164.041 27.64C165.474 28.3567 166.592 29.4747 167.395 30.994C168.226 32.4847 168.642 34.4053 168.642 36.756V50H161.934V37.788C161.934 35.9247 161.547 34.5487 160.773 33.66C159.999 32.7713 158.91 32.327 157.505 32.327C156.53 32.327 155.656 32.5563 154.882 33.015C154.108 33.445 153.506 34.1043 153.076 34.993C152.646 35.8817 152.431 37.014 152.431 38.39V50H145.723V37.788C145.723 35.9247 145.336 34.5487 144.562 33.66C143.817 32.7713 142.742 32.327 141.337 32.327C140.362 32.327 139.488 32.5563 138.714 33.015C137.94 33.445 137.338 34.1043 136.908 34.993C136.478 35.8817 136.263 37.014 136.263 38.39V50H129.555V26.866H135.962V33.187L134.758 31.338C135.561 29.7613 136.693 28.5717 138.155 27.769C139.646 26.9377 141.337 26.522 143.229 26.522C145.35 26.522 147.199 27.0667 148.776 28.156C150.381 29.2167 151.442 30.8507 151.958 33.058L149.593 32.413C150.367 30.607 151.6 29.1737 153.291 28.113C155.011 27.0523 156.975 26.522 159.182 26.522ZM174.655 50V26.866H181.363V50H174.655ZM178.009 23.641C176.776 23.641 175.773 23.2827 174.999 22.566C174.225 21.8493 173.838 20.9607 173.838 19.9C173.838 18.8393 174.225 17.9507 174.999 17.234C175.773 16.5173 176.776 16.159 178.009 16.159C179.241 16.159 180.245 16.503 181.019 17.191C181.793 17.8503 182.18 18.7103 182.18 19.771C182.18 20.889 181.793 21.8207 181.019 22.566C180.273 23.2827 179.27 23.641 178.009 23.641ZM201.262 50.344C199.313 50.344 197.607 49.914 196.145 49.054C194.683 48.194 193.537 46.8897 192.705 45.141C191.903 43.3637 191.501 41.1277 191.501 38.433C191.501 35.7097 191.888 33.4737 192.662 31.725C193.436 29.9763 194.554 28.672 196.016 27.812C197.478 26.952 199.227 26.522 201.262 26.522C203.441 26.522 205.39 27.0237 207.11 28.027C208.859 29.0017 210.235 30.3777 211.238 32.155C212.27 33.9323 212.786 36.025 212.786 38.433C212.786 40.8697 212.27 42.9767 211.238 44.754C210.235 46.5313 208.859 47.9073 207.11 48.882C205.39 49.8567 203.441 50.344 201.262 50.344ZM187.588 58.342V26.866H193.995V31.596L193.866 38.476L194.296 45.313V58.342H187.588ZM200.101 44.84C201.219 44.84 202.208 44.582 203.068 44.066C203.957 43.55 204.659 42.819 205.175 41.873C205.72 40.8983 205.992 39.7517 205.992 38.433C205.992 37.0857 205.72 35.939 205.175 34.993C204.659 34.047 203.957 33.316 203.068 32.8C202.208 32.284 201.219 32.026 200.101 32.026C198.983 32.026 197.98 32.284 197.091 32.8C196.203 33.316 195.5 34.047 194.984 34.993C194.468 35.939 194.21 37.0857 194.21 38.433C194.21 39.7517 194.468 40.8983 194.984 41.873C195.5 42.819 196.203 43.55 197.091 44.066C197.98 44.582 198.983 44.84 200.101 44.84ZM217.277 50V18.094H223.985V50H217.277ZM244.4 50V45.485L243.97 44.496V36.412C243.97 34.9787 243.526 33.8607 242.637 33.058C241.777 32.2553 240.444 31.854 238.638 31.854C237.406 31.854 236.187 32.0547 234.983 32.456C233.808 32.8287 232.805 33.3447 231.973 34.004L229.565 29.317C230.827 28.4283 232.346 27.7403 234.123 27.253C235.901 26.7657 237.707 26.522 239.541 26.522C243.067 26.522 245.805 27.3533 247.754 29.016C249.704 30.6787 250.678 33.273 250.678 36.799V50H244.4ZM237.348 50.344C235.542 50.344 233.994 50.043 232.704 49.441C231.414 48.8103 230.425 47.9647 229.737 46.904C229.049 45.8433 228.705 44.6537 228.705 43.335C228.705 41.959 229.035 40.755 229.694 39.723C230.382 38.691 231.457 37.8883 232.919 37.315C234.381 36.713 236.288 36.412 238.638 36.412H244.787V40.325H239.369C237.793 40.325 236.703 40.583 236.101 41.099C235.528 41.615 235.241 42.26 235.241 43.034C235.241 43.894 235.571 44.582 236.23 45.098C236.918 45.5853 237.85 45.829 239.025 45.829C240.143 45.829 241.147 45.571 242.035 45.055C242.924 44.5103 243.569 43.722 243.97 42.69L245.002 45.786C244.515 47.2767 243.626 48.409 242.336 49.183C241.046 49.957 239.384 50.344 237.348 50.344ZM270.81 26.522C272.645 26.522 274.279 26.8947 275.712 27.64C277.174 28.3567 278.321 29.4747 279.152 30.994C279.984 32.4847 280.399 34.4053 280.399 36.756V50H273.691V37.788C273.691 35.9247 273.276 34.5487 272.444 33.66C271.642 32.7713 270.495 32.327 269.004 32.327C267.944 32.327 266.983 32.5563 266.123 33.015C265.292 33.445 264.633 34.1187 264.145 35.036C263.687 35.9533 263.457 37.1287 263.457 38.562V50H256.749V26.866H263.156V33.273L261.952 31.338C262.784 29.79 263.973 28.6003 265.521 27.769C267.069 26.9377 268.832 26.522 270.81 26.522Z" fill="white"/>
</svg>
